<svg width="581" height="155" viewBox="0 0 581 155" fill="none" xmlns="http://www.w3.org/2000/svg">
<path d="M4 4.32898L56 12.7641L108 83.3527L160 56.2781L212 71.1506L264 101.111L316 71.1506L368 109.5L420 130.5L472 138.871L524 150.625L576 138.542" stroke="#FFCC21" stroke-width="3"/>
<circle cx="56.5" cy="13" r="4" fill="#FFCC21"/>
<circle cx="4" cy="4.5" r="4" fill="#FFCC21"/>
<circle cx="108.5" cy="84" r="4" fill="#FFCC21"/>
<circle cx="160.5" cy="57" r="4" fill="#FFCC21"/>
<circle cx="263.5" cy="101" r="4" fill="#FFCC21"/>
<circle cx="211.5" cy="71" r="4" fill="#FFCC21"/>
<circle cx="316.5" cy="71" r="4" fill="#FFCC21"/>
<circle cx="368.5" cy="110" r="4" fill="#FFCC21"/>
<circle cx="419.5" cy="130" r="4" fill="#FFCC21"/>
<circle cx="471.5" cy="139" r="4" fill="#FFCC21"/>
<circle cx="523.5" cy="151" r="4" fill="#FFCC21"/>
<circle cx="576.5" cy="139" r="4" fill="#FFCC21"/>
</svg>
