<svg width="580" height="229" viewBox="0 0 580 229" fill="none" xmlns="http://www.w3.org/2000/svg">
<path d="M4 4.32898L56 23.4995L108 66.4995L160 74.4995L212 116.5L264 120.5L316 147.5L368 153.5L420 167.5L472 203.5L524 213.875L575.93 224.5" stroke="#8FE9D0" stroke-width="3"/>
<circle cx="55.5" cy="24" r="4" fill="#8FE9D0"/>
<circle cx="4" cy="4.5" r="4" fill="#8FE9D0"/>
<circle cx="108.5" cy="67" r="4" fill="#8FE9D0"/>
<circle cx="159.5" cy="75" r="4" fill="#8FE9D0"/>
<circle cx="211.5" cy="117" r="4" fill="#8FE9D0"/>
<circle cx="264.5" cy="121" r="4" fill="#8FE9D0"/>
<circle cx="315.5" cy="147" r="4" fill="#8FE9D0"/>
<circle cx="367.5" cy="154" r="4" fill="#8FE9D0"/>
<circle cx="420.5" cy="168" r="4" fill="#8FE9D0"/>
<circle cx="472.5" cy="203" r="4" fill="#8FE9D0"/>
<circle cx="575.5" cy="225" r="4" fill="#8FE9D0"/>
<circle cx="523.5" cy="214" r="4" fill="#8FE9D0"/>
</svg>
